<?xml version="1.0" encoding="UTF-8" standalone="no"?><svg xmlns="http://www.w3.org/2000/svg" xmlns:xlink="http://www.w3.org/1999/xlink" contentScriptType="application/ecmascript" contentStyleType="text/css" height="387px" preserveAspectRatio="none" style="width:4431px;height:387px;" version="1.1" viewBox="0 0 4431 387" width="4431px" zoomAndPan="magnify"><defs/><g><line style="stroke: #000000; stroke-width: 1.7;" x1="10" x2="10" y1="10" y2="353.8867"/><line style="stroke: #000000; stroke-width: 1.7;" x1="4414" x2="4414" y1="10" y2="353.8867"/><text fill="#000000" font-family="sans-serif" font-size="12" lengthAdjust="spacingAndGlyphs" textLength="23" x="15" y="23.752">light</text><line style="stroke: #000000; stroke-width: 1.0;" x1="10" x2="39" y1="27.3887" y2="27.3887"/><line style="stroke: #000000; stroke-width: 1.0;" x1="39" x2="49" y1="27.3887" y2="10"/><polygon fill="#D7E0F2" points="51,36.7773,77,36.7773,89,48.7773,77,60.7773,51,60.7773" style="stroke: #D7E0F2; stroke-width: 1.5;"/><path d="M51,36.7773 L77,36.7773 L89,48.7773 L77,60.7773 L51,60.7773 " fill="#D7E0F2" style="stroke: #038048; stroke-width: 1.5;"/><polygon fill="#D7E0F2" points="101,36.7773,257,36.7773,269,48.7773,257,60.7773,101,60.7773,89,48.7773" style="stroke: #038048; stroke-width: 1.5;"/><polygon fill="#D7E0F2" points="281,36.7773,437,36.7773,449,48.7773,437,60.7773,281,60.7773,269,48.7773" style="stroke: #038048; stroke-width: 1.5;"/><polygon fill="#D7E0F2" points="461,36.7773,617,36.7773,629,48.7773,617,60.7773,461,60.7773,449,48.7773" style="stroke: #038048; stroke-width: 1.5;"/><polygon fill="#D7E0F2" points="641,36.7773,797,36.7773,809,48.7773,797,60.7773,641,60.7773,629,48.7773" style="stroke: #038048; stroke-width: 1.5;"/><polygon fill="#D7E0F2" points="821,36.7773,977,36.7773,989,48.7773,977,60.7773,821,60.7773,809,48.7773" style="stroke: #038048; stroke-width: 1.5;"/><polygon fill="#D7E0F2" points="1001,36.7773,1157,36.7773,1169,48.7773,1157,60.7773,1001,60.7773,989,48.7773" style="stroke: #038048; stroke-width: 1.5;"/><polygon fill="#D7E0F2" points="1181,36.7773,1517,36.7773,1529,48.7773,1517,60.7773,1181,60.7773,1169,48.7773" style="stroke: #038048; stroke-width: 1.5;"/><polygon fill="#D7E0F2" points="1541,36.7773,1697,36.7773,1709,48.7773,1697,60.7773,1541,60.7773,1529,48.7773" style="stroke: #038048; stroke-width: 1.5;"/><polygon fill="#D7E0F2" points="1721,36.7773,1877,36.7773,1889,48.7773,1877,60.7773,1721,60.7773,1709,48.7773" style="stroke: #038048; stroke-width: 1.5;"/><polygon fill="#D7E0F2" points="1901,36.7773,2057,36.7773,2069,48.7773,2057,60.7773,1901,60.7773,1889,48.7773" style="stroke: #038048; stroke-width: 1.5;"/><polygon fill="#D7E0F2" points="2081,36.7773,2417,36.7773,2429,48.7773,2417,60.7773,2081,60.7773,2069,48.7773" style="stroke: #038048; stroke-width: 1.5;"/><polygon fill="#D7E0F2" points="2441,36.7773,2597,36.7773,2609,48.7773,2597,60.7773,2441,60.7773,2429,48.7773" style="stroke: #038048; stroke-width: 1.5;"/><polygon fill="#D7E0F2" points="2621,36.7773,2957,36.7773,2969,48.7773,2957,60.7773,2621,60.7773,2609,48.7773" style="stroke: #038048; stroke-width: 1.5;"/><polygon fill="#D7E0F2" points="2981,36.7773,3137,36.7773,3149,48.7773,3137,60.7773,2981,60.7773,2969,48.7773" style="stroke: #038048; stroke-width: 1.5;"/><polygon fill="#D7E0F2" points="3161,36.7773,3677,36.7773,3689,48.7773,3677,60.7773,3161,60.7773,3149,48.7773" style="stroke: #038048; stroke-width: 1.5;"/><polygon fill="#D7E0F2" points="3701,36.7773,3857,36.7773,3869,48.7773,3857,60.7773,3701,60.7773,3689,48.7773" style="stroke: #038048; stroke-width: 1.5;"/><polygon fill="#D7E0F2" points="3881,36.7773,4037,36.7773,4049,48.7773,4037,60.7773,3881,60.7773,3869,48.7773" style="stroke: #038048; stroke-width: 1.5;"/><polygon fill="#D7E0F2" points="4061,36.7773,4409,36.7773,4409,60.7773,4061,60.7773,4049,48.7773" style="stroke: #D7E0F2; stroke-width: 1.5;"/><path d="M4409,36.7773 L4061,36.7773 L4049,48.7773 L4061,60.7773 L4409,60.7773 " fill="#D7E0F2" style="stroke: #038048; stroke-width: 1.5;"/><text fill="#000000" font-family="sans-serif" font-size="12" lengthAdjust="spacingAndGlyphs" textLength="14" x="63" y="54.335">01</text><text fill="#000000" font-family="sans-serif" font-size="12" lengthAdjust="spacingAndGlyphs" textLength="14" x="172" y="54.335">00</text><text fill="#000000" font-family="sans-serif" font-size="12" lengthAdjust="spacingAndGlyphs" textLength="14" x="352" y="54.335">10</text><text fill="#000000" font-family="sans-serif" font-size="12" lengthAdjust="spacingAndGlyphs" textLength="14" x="532" y="54.335">00</text><text fill="#000000" font-family="sans-serif" font-size="12" lengthAdjust="spacingAndGlyphs" textLength="14" x="712" y="54.335">10</text><text fill="#000000" font-family="sans-serif" font-size="12" lengthAdjust="spacingAndGlyphs" textLength="14" x="892" y="54.335">11</text><text fill="#000000" font-family="sans-serif" font-size="12" lengthAdjust="spacingAndGlyphs" textLength="14" x="1072" y="54.335">10</text><text fill="#000000" font-family="sans-serif" font-size="12" lengthAdjust="spacingAndGlyphs" textLength="14" x="1342" y="54.335">11</text><text fill="#000000" font-family="sans-serif" font-size="12" lengthAdjust="spacingAndGlyphs" textLength="14" x="1612" y="54.335">01</text><text fill="#000000" font-family="sans-serif" font-size="12" lengthAdjust="spacingAndGlyphs" textLength="14" x="1792" y="54.335">00</text><text fill="#000000" font-family="sans-serif" font-size="12" lengthAdjust="spacingAndGlyphs" textLength="14" x="1972" y="54.335">01</text><text fill="#000000" font-family="sans-serif" font-size="12" lengthAdjust="spacingAndGlyphs" textLength="14" x="2242" y="54.335">00</text><text fill="#000000" font-family="sans-serif" font-size="12" lengthAdjust="spacingAndGlyphs" textLength="14" x="2512" y="54.335">10</text><text fill="#000000" font-family="sans-serif" font-size="12" lengthAdjust="spacingAndGlyphs" textLength="14" x="2782" y="54.335">00</text><text fill="#000000" font-family="sans-serif" font-size="12" lengthAdjust="spacingAndGlyphs" textLength="14" x="3052" y="54.335">10</text><text fill="#000000" font-family="sans-serif" font-size="12" lengthAdjust="spacingAndGlyphs" textLength="14" x="3412" y="54.335">00</text><text fill="#000000" font-family="sans-serif" font-size="12" lengthAdjust="spacingAndGlyphs" textLength="14" x="3772" y="54.335">11</text><text fill="#000000" font-family="sans-serif" font-size="12" lengthAdjust="spacingAndGlyphs" textLength="14" x="3952" y="54.335">01</text><text fill="#000000" font-family="sans-serif" font-size="12" lengthAdjust="spacingAndGlyphs" textLength="0" x="4064" y="54.335"/><line style="stroke: #000000; stroke-width: 1.7;" x1="10" x2="4414" y1="10" y2="10"/><text fill="#000000" font-family="sans-serif" font-size="12" lengthAdjust="spacingAndGlyphs" textLength="24" x="15" y="92.5293">host</text><line style="stroke: #000000; stroke-width: 1.0;" x1="10" x2="40" y1="96.166" y2="96.166"/><line style="stroke: #000000; stroke-width: 1.0;" x1="40" x2="50" y1="96.166" y2="78.7773"/><polygon fill="#D7E0F2" points="15,105.5547,257,105.5547,269,117.5547,257,129.5547,15,129.5547" style="stroke: #D7E0F2; stroke-width: 1.5;"/><path d="M15,105.5547 L257,105.5547 L269,117.5547 L257,129.5547 L15,129.5547 " fill="#D7E0F2" style="stroke: #038048; stroke-width: 1.5;"/><polygon fill="#D7E0F2" points="281,105.5547,617,105.5547,629,117.5547,617,129.5547,281,129.5547,269,117.5547" style="stroke: #038048; stroke-width: 1.5;"/><polygon fill="#D7E0F2" points="641,105.5547,977,105.5547,989,117.5547,977,129.5547,641,129.5547,629,117.5547" style="stroke: #038048; stroke-width: 1.5;"/><polygon fill="#D7E0F2" points="1001,105.5547,1337,105.5547,1349,117.5547,1337,129.5547,1001,129.5547,989,117.5547" style="stroke: #038048; stroke-width: 1.5;"/><polygon fill="#D7E0F2" points="1361,105.5547,1517,105.5547,1529,117.5547,1517,129.5547,1361,129.5547,1349,117.5547" style="stroke: #038048; stroke-width: 1.5;"/><polygon fill="#D7E0F2" points="1541,105.5547,1877,105.5547,1889,117.5547,1877,129.5547,1541,129.5547,1529,117.5547" style="stroke: #038048; stroke-width: 1.5;"/><polygon fill="#D7E0F2" points="1901,105.5547,2237,105.5547,2249,117.5547,2237,129.5547,1901,129.5547,1889,117.5547" style="stroke: #038048; stroke-width: 1.5;"/><polygon fill="#D7E0F2" points="2261,105.5547,2417,105.5547,2429,117.5547,2417,129.5547,2261,129.5547,2249,117.5547" style="stroke: #038048; stroke-width: 1.5;"/><polygon fill="#D7E0F2" points="2441,105.5547,2957,105.5547,2969,117.5547,2957,129.5547,2441,129.5547,2429,117.5547" style="stroke: #038048; stroke-width: 1.5;"/><polygon fill="#D7E0F2" points="2981,105.5547,3497,105.5547,3509,117.5547,3497,129.5547,2981,129.5547,2969,117.5547" style="stroke: #038048; stroke-width: 1.5;"/><polygon fill="#D7E0F2" points="3521,105.5547,3677,105.5547,3689,117.5547,3677,129.5547,3521,129.5547,3509,117.5547" style="stroke: #038048; stroke-width: 1.5;"/><polygon fill="#D7E0F2" points="3701,105.5547,4037,105.5547,4049,117.5547,4037,129.5547,3701,129.5547,3689,117.5547" style="stroke: #038048; stroke-width: 1.5;"/><polygon fill="#D7E0F2" points="4061,105.5547,4409,105.5547,4409,129.5547,4061,129.5547,4049,117.5547" style="stroke: #D7E0F2; stroke-width: 1.5;"/><path d="M4409,105.5547 L4061,105.5547 L4049,117.5547 L4061,129.5547 L4409,129.5547 " fill="#D7E0F2" style="stroke: #038048; stroke-width: 1.5;"/><text fill="#000000" font-family="sans-serif" font-size="12" lengthAdjust="spacingAndGlyphs" textLength="50" x="27" y="123.1123">unknown</text><text fill="#000000" font-family="sans-serif" font-size="12" lengthAdjust="spacingAndGlyphs" textLength="41" x="428.5" y="123.1123">sync [0]</text><text fill="#000000" font-family="sans-serif" font-size="12" lengthAdjust="spacingAndGlyphs" textLength="41" x="788.5" y="123.1123">sync [0]</text><text fill="#000000" font-family="sans-serif" font-size="12" lengthAdjust="spacingAndGlyphs" textLength="41" x="1148.5" y="123.1123">sync [1]</text><text fill="#000000" font-family="sans-serif" font-size="12" lengthAdjust="spacingAndGlyphs" textLength="80" x="1399" y="123.1123">sync [2] (done)</text><text fill="#000000" font-family="sans-serif" font-size="12" lengthAdjust="spacingAndGlyphs" textLength="40" x="1689" y="123.1123">start [0]</text><text fill="#000000" font-family="sans-serif" font-size="12" lengthAdjust="spacingAndGlyphs" textLength="40" x="2049" y="123.1123">start [1]</text><text fill="#000000" font-family="sans-serif" font-size="12" lengthAdjust="spacingAndGlyphs" textLength="79" x="2299.5" y="123.1123">start [2] (done)</text><text fill="#000000" font-family="sans-serif" font-size="12" lengthAdjust="spacingAndGlyphs" textLength="103" x="2647.5" y="123.1123">sending 1x = 10 [0]</text><text fill="#000000" font-family="sans-serif" font-size="12" lengthAdjust="spacingAndGlyphs" textLength="103" x="3187.5" y="123.1123">sending 1x = 10 [1]</text><text fill="#000000" font-family="sans-serif" font-size="12" lengthAdjust="spacingAndGlyphs" textLength="142" x="3528" y="123.1123">sending 1x = 10 [2] (done)</text><text fill="#000000" font-family="sans-serif" font-size="12" lengthAdjust="spacingAndGlyphs" textLength="49" x="3844.5" y="123.1123">wait start</text><text fill="#000000" font-family="sans-serif" font-size="12" lengthAdjust="spacingAndGlyphs" textLength="0" x="4064" y="123.1123"/><line style="stroke: #000000; stroke-width: 1.7;" x1="10" x2="4414" y1="78.7773" y2="78.7773"/><text fill="#000000" font-family="sans-serif" font-size="12" lengthAdjust="spacingAndGlyphs" textLength="56" x="15" y="161.3066">next guest</text><line style="stroke: #000000; stroke-width: 1.0;" x1="10" x2="72" y1="164.9434" y2="164.9434"/><line style="stroke: #000000; stroke-width: 1.0;" x1="72" x2="82" y1="164.9434" y2="147.5547"/><polygon fill="#D7E0F2" points="15,174.332,77,174.332,89,186.332,77,198.332,15,198.332" style="stroke: #D7E0F2; stroke-width: 1.5;"/><path d="M15,174.332 L77,174.332 L89,186.332 L77,198.332 L15,198.332 " fill="#D7E0F2" style="stroke: #038048; stroke-width: 1.5;"/><polygon fill="#D7E0F2" points="101,174.332,797,174.332,809,186.332,797,198.332,101,198.332,89,186.332" style="stroke: #038048; stroke-width: 1.5;"/><polygon fill="#D7E0F2" points="821,174.332,2057,174.332,2069,186.332,2057,198.332,821,198.332,809,186.332" style="stroke: #038048; stroke-width: 1.5;"/><polygon fill="#D7E0F2" points="2081,174.332,2597,174.332,2609,186.332,2597,198.332,2081,198.332,2069,186.332" style="stroke: #038048; stroke-width: 1.5;"/><polygon fill="#D7E0F2" points="2621,174.332,2777,174.332,2789,186.332,2777,198.332,2621,198.332,2609,186.332" style="stroke: #038048; stroke-width: 1.5;"/><polygon fill="#D7E0F2" points="2801,174.332,3857,174.332,3869,186.332,3857,198.332,2801,198.332,2789,186.332" style="stroke: #038048; stroke-width: 1.5;"/><polygon fill="#D7E0F2" points="3881,174.332,4037,174.332,4049,186.332,4037,198.332,3881,198.332,3869,186.332" style="stroke: #038048; stroke-width: 1.5;"/><polygon fill="#D7E0F2" points="4061,174.332,4409,174.332,4409,198.332,4061,198.332,4049,186.332" style="stroke: #D7E0F2; stroke-width: 1.5;"/><path d="M4409,174.332 L4061,174.332 L4049,186.332 L4061,198.332 L4409,198.332 " fill="#D7E0F2" style="stroke: #038048; stroke-width: 1.5;"/><text fill="#000000" font-family="sans-serif" font-size="12" lengthAdjust="spacingAndGlyphs" textLength="50" x="27" y="191.8896">unknown</text><text fill="#000000" font-family="sans-serif" font-size="12" lengthAdjust="spacingAndGlyphs" textLength="66" x="416" y="191.8896">wait second</text><text fill="#000000" font-family="sans-serif" font-size="12" lengthAdjust="spacingAndGlyphs" textLength="49" x="1414.5" y="191.8896">wait start</text><text fill="#000000" font-family="sans-serif" font-size="12" lengthAdjust="spacingAndGlyphs" textLength="47" x="2315.5" y="191.8896">wait recv</text><text fill="#000000" font-family="sans-serif" font-size="12" lengthAdjust="spacingAndGlyphs" textLength="50" x="2674" y="191.8896">recv x = 0</text><text fill="#000000" font-family="sans-serif" font-size="12" lengthAdjust="spacingAndGlyphs" textLength="125" x="3266.5" y="191.8896">wait to become sender</text><text fill="#000000" font-family="sans-serif" font-size="12" lengthAdjust="spacingAndGlyphs" textLength="40" x="3939" y="191.8896">start [0]</text><text fill="#000000" font-family="sans-serif" font-size="12" lengthAdjust="spacingAndGlyphs" textLength="171" x="4061" y="191.8896">continue as sender from step 8</text><line style="stroke: #000000; stroke-width: 1.7;" x1="10" x2="4414" y1="147.5547" y2="147.5547"/><text fill="#000000" font-family="sans-serif" font-size="12" lengthAdjust="spacingAndGlyphs" textLength="70" x="15" y="230.084">more guests</text><line style="stroke: #000000; stroke-width: 1.0;" x1="10" x2="86" y1="233.7207" y2="233.7207"/><line style="stroke: #000000; stroke-width: 1.0;" x1="86" x2="96" y1="233.7207" y2="216.332"/><polygon fill="#D7E0F2" points="15,243.1094,437,243.1094,449,255.1094,437,267.1094,15,267.1094" style="stroke: #D7E0F2; stroke-width: 1.5;"/><path d="M15,243.1094 L437,243.1094 L449,255.1094 L437,267.1094 L15,267.1094 " fill="#D7E0F2" style="stroke: #038048; stroke-width: 1.5;"/><polygon fill="#D7E0F2" points="461,243.1094,1157,243.1094,1169,255.1094,1157,267.1094,461,267.1094,449,255.1094" style="stroke: #038048; stroke-width: 1.5;"/><polygon fill="#D7E0F2" points="1181,243.1094,1697,243.1094,1709,255.1094,1697,267.1094,1181,267.1094,1169,255.1094" style="stroke: #038048; stroke-width: 1.5;"/><polygon fill="#D7E0F2" points="1721,243.1094,3137,243.1094,3149,255.1094,3137,267.1094,1721,267.1094,1709,255.1094" style="stroke: #038048; stroke-width: 1.5;"/><polygon fill="#D7E0F2" points="3161,243.1094,3317,243.1094,3329,255.1094,3317,267.1094,3161,267.1094,3149,255.1094" style="stroke: #038048; stroke-width: 1.5;"/><polygon fill="#D7E0F2" points="3341,243.1094,4037,243.1094,4049,255.1094,4037,267.1094,3341,267.1094,3329,255.1094" style="stroke: #038048; stroke-width: 1.5;"/><polygon fill="#D7E0F2" points="4061,243.1094,4409,243.1094,4409,267.1094,4061,267.1094,4049,255.1094" style="stroke: #D7E0F2; stroke-width: 1.5;"/><path d="M4409,243.1094 L4061,243.1094 L4049,255.1094 L4061,267.1094 L4409,267.1094 " fill="#D7E0F2" style="stroke: #038048; stroke-width: 1.5;"/><text fill="#000000" font-family="sans-serif" font-size="12" lengthAdjust="spacingAndGlyphs" textLength="50" x="27" y="260.667">unknown</text><text fill="#000000" font-family="sans-serif" font-size="12" lengthAdjust="spacingAndGlyphs" textLength="66" x="776" y="260.667">wait second</text><text fill="#000000" font-family="sans-serif" font-size="12" lengthAdjust="spacingAndGlyphs" textLength="49" x="1414.5" y="260.667">wait start</text><text fill="#000000" font-family="sans-serif" font-size="12" lengthAdjust="spacingAndGlyphs" textLength="47" x="2405.5" y="260.667">wait recv</text><text fill="#000000" font-family="sans-serif" font-size="12" lengthAdjust="spacingAndGlyphs" textLength="50" x="3214" y="260.667">recv x = 0</text><text fill="#000000" font-family="sans-serif" font-size="12" lengthAdjust="spacingAndGlyphs" textLength="49" x="3664.5" y="260.667">wait start</text><text fill="#000000" font-family="sans-serif" font-size="12" lengthAdjust="spacingAndGlyphs" textLength="0" x="4064" y="260.667"/><line style="stroke: #000000; stroke-width: 1.7;" x1="10" x2="4414" y1="216.332" y2="216.332"/><text fill="#000000" font-family="sans-serif" font-size="12" lengthAdjust="spacingAndGlyphs" textLength="27" x="15" y="298.8613">state</text><line style="stroke: #000000; stroke-width: 1.0;" x1="10" x2="43" y1="302.498" y2="302.498"/><line style="stroke: #000000; stroke-width: 1.0;" x1="43" x2="53" y1="302.498" y2="285.1094"/><polygon fill="#D7E0F2" points="101,311.8867,1517,311.8867,1529,323.8867,1517,335.8867,101,335.8867,89,323.8867" style="stroke: #038048; stroke-width: 1.5;"/><polygon fill="#D7E0F2" points="1541,311.8867,2417,311.8867,2429,323.8867,2417,335.8867,1541,335.8867,1529,323.8867" style="stroke: #038048; stroke-width: 1.5;"/><polygon fill="#D7E0F2" points="2441,311.8867,3857,311.8867,3869,323.8867,3857,335.8867,2441,335.8867,2429,323.8867" style="stroke: #038048; stroke-width: 1.5;"/><polygon fill="#D7E0F2" points="3881,311.8867,4037,311.8867,4049,323.8867,4037,335.8867,3881,335.8867,3869,323.8867" style="stroke: #038048; stroke-width: 1.5;"/><polygon fill="#D7E0F2" points="4061,311.8867,4409,311.8867,4409,335.8867,4061,335.8867,4049,323.8867" style="stroke: #D7E0F2; stroke-width: 1.5;"/><path d="M4409,311.8867 L4061,311.8867 L4049,323.8867 L4061,335.8867 L4409,335.8867 " fill="#D7E0F2" style="stroke: #038048; stroke-width: 1.5;"/><text fill="#000000" font-family="sans-serif" font-size="12" lengthAdjust="spacingAndGlyphs" textLength="25" x="796.5" y="329.4443">sync</text><text fill="#000000" font-family="sans-serif" font-size="12" lengthAdjust="spacingAndGlyphs" textLength="111" x="1923.5" y="329.4443">start (sender = host)</text><text fill="#000000" font-family="sans-serif" font-size="12" lengthAdjust="spacingAndGlyphs" textLength="132" x="3083" y="329.4443">sending (sender = host)</text><text fill="#000000" font-family="sans-serif" font-size="12" lengthAdjust="spacingAndGlyphs" textLength="143" x="3887.5" y="329.4443">start (sender = next guest)</text><text fill="#000000" font-family="sans-serif" font-size="12" lengthAdjust="spacingAndGlyphs" textLength="0" x="4064" y="329.4443"/><line style="stroke: #000000; stroke-width: 1.7;" x1="10" x2="4414" y1="285.1094" y2="285.1094"/><line style="stroke: #000000; stroke-width: 2.0;" x1="89" x2="89" y1="353.8867" y2="358.8867"/><line style="stroke: #000000; stroke-width: 2.0;" x1="269" x2="269" y1="353.8867" y2="358.8867"/><line style="stroke: #000000; stroke-width: 2.0;" x1="449" x2="449" y1="353.8867" y2="358.8867"/><line style="stroke: #000000; stroke-width: 2.0;" x1="629" x2="629" y1="353.8867" y2="358.8867"/><line style="stroke: #000000; stroke-width: 2.0;" x1="809" x2="809" y1="353.8867" y2="358.8867"/><line style="stroke: #000000; stroke-width: 2.0;" x1="989" x2="989" y1="353.8867" y2="358.8867"/><line style="stroke: #000000; stroke-width: 2.0;" x1="1169" x2="1169" y1="353.8867" y2="358.8867"/><line style="stroke: #000000; stroke-width: 2.0;" x1="1349" x2="1349" y1="353.8867" y2="358.8867"/><line style="stroke: #000000; stroke-width: 2.0;" x1="1529" x2="1529" y1="353.8867" y2="358.8867"/><line style="stroke: #000000; stroke-width: 2.0;" x1="1709" x2="1709" y1="353.8867" y2="358.8867"/><line style="stroke: #000000; stroke-width: 2.0;" x1="1889" x2="1889" y1="353.8867" y2="358.8867"/><line style="stroke: #000000; stroke-width: 2.0;" x1="2069" x2="2069" y1="353.8867" y2="358.8867"/><line style="stroke: #000000; stroke-width: 2.0;" x1="2249" x2="2249" y1="353.8867" y2="358.8867"/><line style="stroke: #000000; stroke-width: 2.0;" x1="2429" x2="2429" y1="353.8867" y2="358.8867"/><line style="stroke: #000000; stroke-width: 2.0;" x1="2609" x2="2609" y1="353.8867" y2="358.8867"/><line style="stroke: #000000; stroke-width: 2.0;" x1="2789" x2="2789" y1="353.8867" y2="358.8867"/><line style="stroke: #000000; stroke-width: 2.0;" x1="2969" x2="2969" y1="353.8867" y2="358.8867"/><line style="stroke: #000000; stroke-width: 2.0;" x1="3149" x2="3149" y1="353.8867" y2="358.8867"/><line style="stroke: #000000; stroke-width: 2.0;" x1="3329" x2="3329" y1="353.8867" y2="358.8867"/><line style="stroke: #000000; stroke-width: 2.0;" x1="3509" x2="3509" y1="353.8867" y2="358.8867"/><line style="stroke: #000000; stroke-width: 2.0;" x1="3689" x2="3689" y1="353.8867" y2="358.8867"/><line style="stroke: #000000; stroke-width: 2.0;" x1="3869" x2="3869" y1="353.8867" y2="358.8867"/><line style="stroke: #000000; stroke-width: 2.0;" x1="4049" x2="4049" y1="353.8867" y2="358.8867"/><line style="stroke: #000000; stroke-width: 2.0;" x1="4229" x2="4229" y1="353.8867" y2="358.8867"/><line style="stroke: #000000; stroke-width: 2.0;" x1="4409" x2="4409" y1="353.8867" y2="358.8867"/><line style="stroke: #000000; stroke-width: 2.0;" x1="89" x2="4409" y1="353.8867" y2="353.8867"/><text fill="#000000" font-family="sans-serif" font-size="12" lengthAdjust="spacingAndGlyphs" textLength="7" x="85.5" y="373.6387">0</text><text fill="#000000" font-family="sans-serif" font-size="12" lengthAdjust="spacingAndGlyphs" textLength="7" x="265.5" y="373.6387">1</text><text fill="#000000" font-family="sans-serif" font-size="12" lengthAdjust="spacingAndGlyphs" textLength="7" x="445.5" y="373.6387">2</text><text fill="#000000" font-family="sans-serif" font-size="12" lengthAdjust="spacingAndGlyphs" textLength="7" x="625.5" y="373.6387">3</text><text fill="#000000" font-family="sans-serif" font-size="12" lengthAdjust="spacingAndGlyphs" textLength="7" x="805.5" y="373.6387">4</text><text fill="#000000" font-family="sans-serif" font-size="12" lengthAdjust="spacingAndGlyphs" textLength="7" x="985.5" y="373.6387">5</text><text fill="#000000" font-family="sans-serif" font-size="12" lengthAdjust="spacingAndGlyphs" textLength="7" x="1165.5" y="373.6387">6</text><text fill="#000000" font-family="sans-serif" font-size="12" lengthAdjust="spacingAndGlyphs" textLength="7" x="1345.5" y="373.6387">7</text><text fill="#000000" font-family="sans-serif" font-size="12" lengthAdjust="spacingAndGlyphs" textLength="7" x="1525.5" y="373.6387">8</text><text fill="#000000" font-family="sans-serif" font-size="12" lengthAdjust="spacingAndGlyphs" textLength="7" x="1705.5" y="373.6387">9</text><text fill="#000000" font-family="sans-serif" font-size="12" lengthAdjust="spacingAndGlyphs" textLength="14" x="1882" y="373.6387">10</text><text fill="#000000" font-family="sans-serif" font-size="12" lengthAdjust="spacingAndGlyphs" textLength="14" x="2062" y="373.6387">11</text><text fill="#000000" font-family="sans-serif" font-size="12" lengthAdjust="spacingAndGlyphs" textLength="14" x="2242" y="373.6387">12</text><text fill="#000000" font-family="sans-serif" font-size="12" lengthAdjust="spacingAndGlyphs" textLength="14" x="2422" y="373.6387">13</text><text fill="#000000" font-family="sans-serif" font-size="12" lengthAdjust="spacingAndGlyphs" textLength="14" x="2602" y="373.6387">14</text><text fill="#000000" font-family="sans-serif" font-size="12" lengthAdjust="spacingAndGlyphs" textLength="14" x="2782" y="373.6387">15</text><text fill="#000000" font-family="sans-serif" font-size="12" lengthAdjust="spacingAndGlyphs" textLength="14" x="2962" y="373.6387">16</text><text fill="#000000" font-family="sans-serif" font-size="12" lengthAdjust="spacingAndGlyphs" textLength="14" x="3142" y="373.6387">17</text><text fill="#000000" font-family="sans-serif" font-size="12" lengthAdjust="spacingAndGlyphs" textLength="14" x="3322" y="373.6387">18</text><text fill="#000000" font-family="sans-serif" font-size="12" lengthAdjust="spacingAndGlyphs" textLength="14" x="3502" y="373.6387">19</text><text fill="#000000" font-family="sans-serif" font-size="12" lengthAdjust="spacingAndGlyphs" textLength="14" x="3682" y="373.6387">20</text><text fill="#000000" font-family="sans-serif" font-size="12" lengthAdjust="spacingAndGlyphs" textLength="14" x="3862" y="373.6387">21</text><text fill="#000000" font-family="sans-serif" font-size="12" lengthAdjust="spacingAndGlyphs" textLength="14" x="4042" y="373.6387">22</text><text fill="#000000" font-family="sans-serif" font-size="12" lengthAdjust="spacingAndGlyphs" textLength="14" x="4222" y="373.6387">23</text><text fill="#000000" font-family="sans-serif" font-size="12" lengthAdjust="spacingAndGlyphs" textLength="14" x="4402" y="373.6387">24</text><line style="stroke: #0000FF; stroke-width: 1.0;" x1="89" x2="89" y1="186.332" y2="48.7773"/><polygon fill="#0000FF" points="91.7362,56.2949,86.2638,56.2949,89,48.7773" style="stroke: #0000FF; stroke-width: 1.0;"/><text fill="#0000FF" font-family="Serif" font-size="14" lengthAdjust="spacingAndGlyphs" textLength="113" x="89" y="72.3388">first ack (uncertain)</text><line style="stroke: #0000FF; stroke-width: 1.0;" x1="269" x2="269" y1="48.7773" y2="117.5547"/><polygon fill="#0000FF" points="266.2638,110.0371,271.7362,110.0371,269,117.5547" style="stroke: #0000FF; stroke-width: 1.0;"/><text fill="#0000FF" font-family="Serif" font-size="14" lengthAdjust="spacingAndGlyphs" textLength="67" x="269" y="106.961">not counted</text><line style="stroke: #0000FF; stroke-width: 1.0;" x1="449" x2="449" y1="255.1094" y2="48.7773"/><polygon fill="#0000FF" points="451.7362,56.2949,446.2638,56.2949,449,48.7773" style="stroke: #0000FF; stroke-width: 1.0;"/><text fill="#0000FF" font-family="Serif" font-size="14" lengthAdjust="spacingAndGlyphs" textLength="47" x="449" y="72.3388">first ack</text><line style="stroke: #0000FF; stroke-width: 1.0;" x1="629" x2="629" y1="48.7773" y2="117.5547"/><polygon fill="#0000FF" points="626.2638,110.0371,631.7362,110.0371,629,117.5547" style="stroke: #0000FF; stroke-width: 1.0;"/><text fill="#0000FF" font-family="Serif" font-size="14" lengthAdjust="spacingAndGlyphs" textLength="67" x="629" y="106.961">not counted</text><line style="stroke: #0000FF; stroke-width: 1.0;" x1="809" x2="809" y1="186.332" y2="48.7773"/><polygon fill="#0000FF" points="811.7362,56.2949,806.2638,56.2949,809,48.7773" style="stroke: #0000FF; stroke-width: 1.0;"/><text fill="#0000FF" font-family="Serif" font-size="14" lengthAdjust="spacingAndGlyphs" textLength="116" x="809" y="72.3388">second ack (certain)</text><line style="stroke: #0000FF; stroke-width: 1.0;" x1="989" x2="989" y1="48.7773" y2="117.5547"/><polygon fill="#0000FF" points="986.2638,110.0371,991.7362,110.0371,989,117.5547" style="stroke: #0000FF; stroke-width: 1.0;"/><text fill="#0000FF" font-family="Serif" font-size="14" lengthAdjust="spacingAndGlyphs" textLength="45" x="989" y="106.961">counted</text><line style="stroke: #0000FF; stroke-width: 1.0;" x1="1169" x2="1169" y1="255.1094" y2="48.7773"/><polygon fill="#0000FF" points="1171.7362,56.2949,1166.2638,56.2949,1169,48.7773" style="stroke: #0000FF; stroke-width: 1.0;"/><text fill="#0000FF" font-family="Serif" font-size="14" lengthAdjust="spacingAndGlyphs" textLength="64" x="1169" y="72.3388">second ack</text><line style="stroke: #0000FF; stroke-width: 1.0;" x1="1349" x2="1349" y1="60.7773" y2="117.5547"/><polygon fill="#0000FF" points="1346.2638,110.0371,1351.7362,110.0371,1349,117.5547" style="stroke: #0000FF; stroke-width: 1.0;"/><text fill="#0000FF" font-family="Serif" font-size="14" lengthAdjust="spacingAndGlyphs" textLength="45" x="1349" y="106.961">counted</text><line style="stroke: #0000FF; stroke-width: 1.0;" x1="1529" x2="1529" y1="117.5547" y2="48.7773"/><polygon fill="#0000FF" points="1531.7362,56.2949,1526.2638,56.2949,1529,48.7773" style="stroke: #0000FF; stroke-width: 1.0;"/><line style="stroke: #0000FF; stroke-width: 1.0;" x1="1529" x2="1529" y1="117.5547" y2="323.8867"/><polygon fill="#0000FF" points="1526.2638,316.3692,1531.7362,316.3692,1529,323.8867" style="stroke: #0000FF; stroke-width: 1.0;"/><line style="stroke: #0000FF; stroke-width: 1.0;" x1="1709" x2="1709" y1="255.1094" y2="48.7773"/><polygon fill="#0000FF" points="1711.7362,56.2949,1706.2638,56.2949,1709,48.7773" style="stroke: #0000FF; stroke-width: 1.0;"/><text fill="#0000FF" font-family="Serif" font-size="14" lengthAdjust="spacingAndGlyphs" textLength="49" x="1709" y="72.3388">start ack</text><line style="stroke: #0000FF; stroke-width: 1.0;" x1="1889" x2="1889" y1="48.7773" y2="117.5547"/><polygon fill="#0000FF" points="1886.2638,110.0371,1891.7362,110.0371,1889,117.5547" style="stroke: #0000FF; stroke-width: 1.0;"/><line style="stroke: #0000FF; stroke-width: 1.0;" x1="2069" x2="2069" y1="186.332" y2="48.7773"/><polygon fill="#0000FF" points="2071.7362,56.2949,2066.2638,56.2949,2069,48.7773" style="stroke: #0000FF; stroke-width: 1.0;"/><text fill="#0000FF" font-family="Serif" font-size="14" lengthAdjust="spacingAndGlyphs" textLength="49" x="2069" y="72.3388">start ack</text><line style="stroke: #0000FF; stroke-width: 1.0;" x1="2249" x2="2249" y1="60.7773" y2="117.5547"/><polygon fill="#0000FF" points="2246.2638,110.0371,2251.7362,110.0371,2249,117.5547" style="stroke: #0000FF; stroke-width: 1.0;"/><line style="stroke: #0000FF; stroke-width: 1.0;" x1="2429" x2="2429" y1="117.5547" y2="48.7773"/><polygon fill="#0000FF" points="2431.7362,56.2949,2426.2638,56.2949,2429,48.7773" style="stroke: #0000FF; stroke-width: 1.0;"/><line style="stroke: #0000FF; stroke-width: 1.0;" x1="2429" x2="2429" y1="117.5547" y2="323.8867"/><polygon fill="#0000FF" points="2426.2638,316.3692,2431.7362,316.3692,2429,323.8867" style="stroke: #0000FF; stroke-width: 1.0;"/><line style="stroke: #0000FF; stroke-width: 1.0;" x1="2609" x2="2609" y1="186.332" y2="48.7773"/><polygon fill="#0000FF" points="2611.7362,56.2949,2606.2638,56.2949,2609,48.7773" style="stroke: #0000FF; stroke-width: 1.0;"/><text fill="#0000FF" font-family="Serif" font-size="14" lengthAdjust="spacingAndGlyphs" textLength="48" x="2609" y="72.3388">msg ack</text><line style="stroke: #0000FF; stroke-width: 1.0;" x1="2969" x2="2969" y1="48.7773" y2="117.5547"/><polygon fill="#0000FF" points="2966.2638,110.0371,2971.7362,110.0371,2969,117.5547" style="stroke: #0000FF; stroke-width: 1.0;"/><line style="stroke: #0000FF; stroke-width: 1.0;" x1="3149" x2="3149" y1="255.1094" y2="48.7773"/><polygon fill="#0000FF" points="3151.7362,56.2949,3146.2638,56.2949,3149,48.7773" style="stroke: #0000FF; stroke-width: 1.0;"/><text fill="#0000FF" font-family="Serif" font-size="14" lengthAdjust="spacingAndGlyphs" textLength="48" x="3149" y="72.3388">msg ack</text><line style="stroke: #0000FF; stroke-width: 1.0;" x1="3509" x2="3509" y1="60.7773" y2="117.5547"/><polygon fill="#0000FF" points="3506.2638,110.0371,3511.7362,110.0371,3509,117.5547" style="stroke: #0000FF; stroke-width: 1.0;"/><line style="stroke: #0000FF; stroke-width: 1.0;" x1="3689" x2="3689" y1="117.5547" y2="48.7773"/><polygon fill="#0000FF" points="3691.7362,56.2949,3686.2638,56.2949,3689,48.7773" style="stroke: #0000FF; stroke-width: 1.0;"/><text fill="#0000FF" font-family="Serif" font-size="14" lengthAdjust="spacingAndGlyphs" textLength="156" x="3689" y="72.3388">next one take over, 1y = 11</text><line style="stroke: #0000FF; stroke-width: 1.0;" x1="3869" x2="3869" y1="186.332" y2="48.7773"/><polygon fill="#0000FF" points="3871.7362,56.2949,3866.2638,56.2949,3869,48.7773" style="stroke: #0000FF; stroke-width: 1.0;"/><text fill="#0000FF" font-family="Serif" font-size="14" lengthAdjust="spacingAndGlyphs" textLength="52" x="3869" y="72.3388">take over</text><line style="stroke: #0000FF; stroke-width: 1.0;" x1="3869" x2="3869" y1="186.332" y2="323.8867"/><polygon fill="#0000FF" points="3866.2638,316.3692,3871.7362,316.3692,3869,323.8867" style="stroke: #0000FF; stroke-width: 1.0;"/><!--
@startuml timing
scale 1 as 180 pixels

concise "light" as L
concise "host" as H
concise "next guest" as N
concise "more guests" as M
concise "state" as S

H is unknown
N is unknown
M is unknown
L is 01

@0
N -> L : first ack (uncertain)
L is 00
N is "wait second"
S is sync

@1
L -> H : not counted
H is "sync [0]"
L is "10"

@2
M -> L : first ack
L is 00
M is "wait second"

@3
L -> H : not counted
L is 10
H is "sync [0]"

@4
N -> L : second ack (certain)
L is 11
N is "wait start"

@5
L -> H : counted
L is 10
H is "sync [1]"

@6
M -> L : second ack
L is 11
M is "wait start"

@7
L -> H : counted
H is "sync [2] (done)"

@8
H -> L
H -> S
L is 01
H is "start [0]"
S is "start (sender = host)"

@9
M -> L : start ack
L is 00
M is "wait recv"

@10
L -> H
L is 01
H is "start [1]"

@11
N -> L : start ack
L is 00
N is "wait recv"

@12
L -> H
H is "start [2] (done)"

@13
H -> L
H -> S
L is 10
H is "sending 1x = 10 [0]"
S is "sending (sender = host)"

@14
N -> L : msg ack
L is 00
N is "recv x = 0"

@15
N is "wait to become sender"

@16
L -> H
L is 10
H is "sending 1x = 10 [1]"

@17
M -> L : msg ack
L is 00
M is "recv x = 0"

@18
M is "wait start"

@19
L -> H
H is "sending 1x = 10 [2] (done)"

@20
H -> L : next one take over, 1y = 11
L is 11
H is "wait start"

@21
N -> L : take over
N -> S
L is 01
N is "start [0]"
S is "start (sender = next guest)"

@22
L is " "
H is " "
N is "continue as sender from step 8"
M is " "
S is " "

@23

@enduml

PlantUML version 1.2018.03(Fri Apr 06 00:59:15 CST 2018)
(GPL source distribution)
Java Runtime: Java(TM) SE Runtime Environment
JVM: Java HotSpot(TM) 64-Bit Server VM
Java Version: 1.8.0_161-b12
Operating System: Windows 10
OS Version: 10.0
Default Encoding: GBK
Language: zh
Country: CN
--></g></svg>